<mxfile host="app.diagrams.net" modified="2022-05-12T03:42:46.190Z" agent="5.0 (Macintosh; Intel Mac OS X 10_15_7) AppleWebKit/605.1.15 (KHTML, like Gecko) Version/15.3 Safari/605.1.15" etag="GUzeo7DCYTWyH3qWWTAR" version="18.0.3" type="github">
  <diagram id="C5RBs43oDa-KdzZeNtuy" name="Page-1">
    <mxGraphModel dx="2410" dy="2160" grid="1" gridSize="10" guides="1" tooltips="1" connect="1" arrows="1" fold="1" page="1" pageScale="1" pageWidth="827" pageHeight="1169" math="0" shadow="0">
      <root>
        <mxCell id="WIyWlLk6GJQsqaUBKTNV-0" />
        <mxCell id="WIyWlLk6GJQsqaUBKTNV-1" parent="WIyWlLk6GJQsqaUBKTNV-0" />
        <mxCell id="zkfFHV4jXpPFQw0GAbJ--0" value="ReviewNewKnowClickView" style="swimlane;fontStyle=2;align=center;verticalAlign=top;childLayout=stackLayout;horizontal=1;startSize=26;horizontalStack=0;resizeParent=1;resizeLast=0;collapsible=1;marginBottom=0;rounded=0;shadow=0;strokeWidth=1;" parent="WIyWlLk6GJQsqaUBKTNV-1" vertex="1">
          <mxGeometry x="-5" y="-250" width="305" height="554" as="geometry">
            <mxRectangle x="230" y="140" width="160" height="26" as="alternateBounds" />
          </mxGeometry>
        </mxCell>
        <mxCell id="-tLpFbg5UkZrY0DCYXwx-77" value="list" style="text;align=left;verticalAlign=top;spacingLeft=4;spacingRight=4;overflow=hidden;rotatable=0;points=[[0,0.5],[1,0.5]];portConstraint=eastwest;" vertex="1" parent="zkfFHV4jXpPFQw0GAbJ--0">
          <mxGeometry y="26" width="305" height="26" as="geometry" />
        </mxCell>
        <mxCell id="zkfFHV4jXpPFQw0GAbJ--1" value="basket" style="text;align=left;verticalAlign=top;spacingLeft=4;spacingRight=4;overflow=hidden;rotatable=0;points=[[0,0.5],[1,0.5]];portConstraint=eastwest;" parent="zkfFHV4jXpPFQw0GAbJ--0" vertex="1">
          <mxGeometry y="52" width="305" height="26" as="geometry" />
        </mxCell>
        <mxCell id="-tLpFbg5UkZrY0DCYXwx-59" value="role" style="text;align=left;verticalAlign=top;spacingLeft=4;spacingRight=4;overflow=hidden;rotatable=0;points=[[0,0.5],[1,0.5]];portConstraint=eastwest;rounded=0;shadow=0;html=0;" vertex="1" parent="zkfFHV4jXpPFQw0GAbJ--0">
          <mxGeometry y="78" width="305" height="26" as="geometry" />
        </mxCell>
        <mxCell id="-tLpFbg5UkZrY0DCYXwx-60" value="bg" style="text;align=left;verticalAlign=top;spacingLeft=4;spacingRight=4;overflow=hidden;rotatable=0;points=[[0,0.5],[1,0.5]];portConstraint=eastwest;rounded=0;shadow=0;html=0;" vertex="1" parent="zkfFHV4jXpPFQw0GAbJ--0">
          <mxGeometry y="104" width="305" height="26" as="geometry" />
        </mxCell>
        <mxCell id="-tLpFbg5UkZrY0DCYXwx-61" value="shelve_group" style="text;align=left;verticalAlign=top;spacingLeft=4;spacingRight=4;overflow=hidden;rotatable=0;points=[[0,0.5],[1,0.5]];portConstraint=eastwest;rounded=0;shadow=0;html=0;" vertex="1" parent="zkfFHV4jXpPFQw0GAbJ--0">
          <mxGeometry y="130" width="305" height="26" as="geometry" />
        </mxCell>
        <mxCell id="-tLpFbg5UkZrY0DCYXwx-62" value="drag 拖拽功能" style="text;align=left;verticalAlign=top;spacingLeft=4;spacingRight=4;overflow=hidden;rotatable=0;points=[[0,0.5],[1,0.5]];portConstraint=eastwest;rounded=0;shadow=0;html=0;" vertex="1" parent="zkfFHV4jXpPFQw0GAbJ--0">
          <mxGeometry y="156" width="305" height="26" as="geometry" />
        </mxCell>
        <mxCell id="zkfFHV4jXpPFQw0GAbJ--4" value="" style="line;html=1;strokeWidth=1;align=left;verticalAlign=middle;spacingTop=-1;spacingLeft=3;spacingRight=3;rotatable=0;labelPosition=right;points=[];portConstraint=eastwest;" parent="zkfFHV4jXpPFQw0GAbJ--0" vertex="1">
          <mxGeometry y="182" width="305" height="8" as="geometry" />
        </mxCell>
        <mxCell id="-tLpFbg5UkZrY0DCYXwx-67" value="OnLoadResComplete 所有初始化开始的地方&#xa;" style="text;align=left;verticalAlign=top;spacingLeft=4;spacingRight=4;overflow=hidden;rotatable=0;points=[[0,0.5],[1,0.5]];portConstraint=eastwest;" vertex="1" parent="zkfFHV4jXpPFQw0GAbJ--0">
          <mxGeometry y="190" width="305" height="26" as="geometry" />
        </mxCell>
        <mxCell id="zkfFHV4jXpPFQw0GAbJ--5" value="ShelveGuide 货架手势引导" style="text;align=left;verticalAlign=top;spacingLeft=4;spacingRight=4;overflow=hidden;rotatable=0;points=[[0,0.5],[1,0.5]];portConstraint=eastwest;" parent="zkfFHV4jXpPFQw0GAbJ--0" vertex="1">
          <mxGeometry y="216" width="305" height="26" as="geometry" />
        </mxCell>
        <mxCell id="-tLpFbg5UkZrY0DCYXwx-63" value="ListGuide 购物清单手势引导" style="text;align=left;verticalAlign=top;spacingLeft=4;spacingRight=4;overflow=hidden;rotatable=0;points=[[0,0.5],[1,0.5]];portConstraint=eastwest;" vertex="1" parent="zkfFHV4jXpPFQw0GAbJ--0">
          <mxGeometry y="242" width="305" height="26" as="geometry" />
        </mxCell>
        <mxCell id="-tLpFbg5UkZrY0DCYXwx-64" value="ChangeGuideStatus 控制手势引导的显示和关闭" style="text;align=left;verticalAlign=top;spacingLeft=4;spacingRight=4;overflow=hidden;rotatable=0;points=[[0,0.5],[1,0.5]];portConstraint=eastwest;" vertex="1" parent="zkfFHV4jXpPFQw0GAbJ--0">
          <mxGeometry y="268" width="305" height="26" as="geometry" />
        </mxCell>
        <mxCell id="-tLpFbg5UkZrY0DCYXwx-66" value="Show  游戏开始" style="text;align=left;verticalAlign=top;spacingLeft=4;spacingRight=4;overflow=hidden;rotatable=0;points=[[0,0.5],[1,0.5]];portConstraint=eastwest;" vertex="1" parent="zkfFHV4jXpPFQw0GAbJ--0">
          <mxGeometry y="294" width="305" height="26" as="geometry" />
        </mxCell>
        <mxCell id="-tLpFbg5UkZrY0DCYXwx-68" value="ShowList  展示购物清单" style="text;align=left;verticalAlign=top;spacingLeft=4;spacingRight=4;overflow=hidden;rotatable=0;points=[[0,0.5],[1,0.5]];portConstraint=eastwest;" vertex="1" parent="zkfFHV4jXpPFQw0GAbJ--0">
          <mxGeometry y="320" width="305" height="26" as="geometry" />
        </mxCell>
        <mxCell id="-tLpFbg5UkZrY0DCYXwx-69" value="ShowBasket  展示购物栏" style="text;align=left;verticalAlign=top;spacingLeft=4;spacingRight=4;overflow=hidden;rotatable=0;points=[[0,0.5],[1,0.5]];portConstraint=eastwest;" vertex="1" parent="zkfFHV4jXpPFQw0GAbJ--0">
          <mxGeometry y="346" width="305" height="26" as="geometry" />
        </mxCell>
        <mxCell id="-tLpFbg5UkZrY0DCYXwx-70" value="SetRoleMoveStatus  设置物体移动状态 " style="text;align=left;verticalAlign=top;spacingLeft=4;spacingRight=4;overflow=hidden;rotatable=0;points=[[0,0.5],[1,0.5]];portConstraint=eastwest;" vertex="1" parent="zkfFHV4jXpPFQw0GAbJ--0">
          <mxGeometry y="372" width="305" height="26" as="geometry" />
        </mxCell>
        <mxCell id="-tLpFbg5UkZrY0DCYXwx-71" value="MoveBg  拖拽，点击背景的移动" style="text;align=left;verticalAlign=top;spacingLeft=4;spacingRight=4;overflow=hidden;rotatable=0;points=[[0,0.5],[1,0.5]];portConstraint=eastwest;" vertex="1" parent="zkfFHV4jXpPFQw0GAbJ--0">
          <mxGeometry y="398" width="305" height="26" as="geometry" />
        </mxCell>
        <mxCell id="-tLpFbg5UkZrY0DCYXwx-72" value="ClickShelveItem 点击了货架上的物体判断正误" style="text;align=left;verticalAlign=top;spacingLeft=4;spacingRight=4;overflow=hidden;rotatable=0;points=[[0,0.5],[1,0.5]];portConstraint=eastwest;" vertex="1" parent="zkfFHV4jXpPFQw0GAbJ--0">
          <mxGeometry y="424" width="305" height="26" as="geometry" />
        </mxCell>
        <mxCell id="-tLpFbg5UkZrY0DCYXwx-73" value="DragStart，DragMove，DragStop 拖拽事件处理" style="text;align=left;verticalAlign=top;spacingLeft=4;spacingRight=4;overflow=hidden;rotatable=0;points=[[0,0.5],[1,0.5]];portConstraint=eastwest;" vertex="1" parent="zkfFHV4jXpPFQw0GAbJ--0">
          <mxGeometry y="450" width="305" height="26" as="geometry" />
        </mxCell>
        <mxCell id="-tLpFbg5UkZrY0DCYXwx-74" value="SetMoveEnable 按钮和拖拽开启/关闭&#xa;" style="text;align=left;verticalAlign=top;spacingLeft=4;spacingRight=4;overflow=hidden;rotatable=0;points=[[0,0.5],[1,0.5]];portConstraint=eastwest;" vertex="1" parent="zkfFHV4jXpPFQw0GAbJ--0">
          <mxGeometry y="476" width="305" height="26" as="geometry" />
        </mxCell>
        <mxCell id="-tLpFbg5UkZrY0DCYXwx-75" value="SetMoveEnable 按钮和拖拽开启/关闭&#xa;" style="text;align=left;verticalAlign=top;spacingLeft=4;spacingRight=4;overflow=hidden;rotatable=0;points=[[0,0.5],[1,0.5]];portConstraint=eastwest;" vertex="1" parent="zkfFHV4jXpPFQw0GAbJ--0">
          <mxGeometry y="502" width="305" height="26" as="geometry" />
        </mxCell>
        <mxCell id="-tLpFbg5UkZrY0DCYXwx-76" value="GameOver 游戏结束的判断" style="text;align=left;verticalAlign=top;spacingLeft=4;spacingRight=4;overflow=hidden;rotatable=0;points=[[0,0.5],[1,0.5]];portConstraint=eastwest;" vertex="1" parent="zkfFHV4jXpPFQw0GAbJ--0">
          <mxGeometry y="528" width="305" height="26" as="geometry" />
        </mxCell>
        <mxCell id="-tLpFbg5UkZrY0DCYXwx-188" style="edgeStyle=orthogonalEdgeStyle;rounded=0;orthogonalLoop=1;jettySize=auto;html=1;" edge="1" parent="WIyWlLk6GJQsqaUBKTNV-1" source="-tLpFbg5UkZrY0DCYXwx-0">
          <mxGeometry relative="1" as="geometry">
            <mxPoint x="130" y="310" as="targetPoint" />
          </mxGeometry>
        </mxCell>
        <mxCell id="-tLpFbg5UkZrY0DCYXwx-0" value="ReviewNewKnowClickModel" style="swimlane;fontStyle=2;align=center;verticalAlign=top;childLayout=stackLayout;horizontal=1;startSize=26;horizontalStack=0;resizeParent=1;resizeLast=0;collapsible=1;marginBottom=0;rounded=0;shadow=0;strokeWidth=1;" vertex="1" parent="WIyWlLk6GJQsqaUBKTNV-1">
          <mxGeometry x="20" y="380" width="220" height="268" as="geometry">
            <mxRectangle x="230" y="140" width="160" height="26" as="alternateBounds" />
          </mxGeometry>
        </mxCell>
        <mxCell id="-tLpFbg5UkZrY0DCYXwx-1" value="topic_list" style="text;align=left;verticalAlign=top;spacingLeft=4;spacingRight=4;overflow=hidden;rotatable=0;points=[[0,0.5],[1,0.5]];portConstraint=eastwest;" vertex="1" parent="-tLpFbg5UkZrY0DCYXwx-0">
          <mxGeometry y="26" width="220" height="26" as="geometry" />
        </mxCell>
        <mxCell id="-tLpFbg5UkZrY0DCYXwx-2" value="answer_list" style="text;align=left;verticalAlign=top;spacingLeft=4;spacingRight=4;overflow=hidden;rotatable=0;points=[[0,0.5],[1,0.5]];portConstraint=eastwest;rounded=0;shadow=0;html=0;" vertex="1" parent="-tLpFbg5UkZrY0DCYXwx-0">
          <mxGeometry y="52" width="220" height="26" as="geometry" />
        </mxCell>
        <mxCell id="-tLpFbg5UkZrY0DCYXwx-26" value="shelve_data" style="text;align=left;verticalAlign=top;spacingLeft=4;spacingRight=4;overflow=hidden;rotatable=0;points=[[0,0.5],[1,0.5]];portConstraint=eastwest;rounded=0;shadow=0;html=0;" vertex="1" parent="-tLpFbg5UkZrY0DCYXwx-0">
          <mxGeometry y="78" width="220" height="26" as="geometry" />
        </mxCell>
        <mxCell id="-tLpFbg5UkZrY0DCYXwx-3" value="commonRes" style="text;align=left;verticalAlign=top;spacingLeft=4;spacingRight=4;overflow=hidden;rotatable=0;points=[[0,0.5],[1,0.5]];portConstraint=eastwest;rounded=0;shadow=0;html=0;" vertex="1" parent="-tLpFbg5UkZrY0DCYXwx-0">
          <mxGeometry y="104" width="220" height="26" as="geometry" />
        </mxCell>
        <mxCell id="-tLpFbg5UkZrY0DCYXwx-4" value="" style="line;html=1;strokeWidth=1;align=left;verticalAlign=middle;spacingTop=-1;spacingLeft=3;spacingRight=3;rotatable=0;labelPosition=right;points=[];portConstraint=eastwest;" vertex="1" parent="-tLpFbg5UkZrY0DCYXwx-0">
          <mxGeometry y="130" width="220" height="8" as="geometry" />
        </mxCell>
        <mxCell id="-tLpFbg5UkZrY0DCYXwx-20" value="OnCreate 各种数据初始化的开始" style="text;align=left;verticalAlign=top;spacingLeft=4;spacingRight=4;overflow=hidden;rotatable=0;points=[[0,0.5],[1,0.5]];portConstraint=eastwest;" vertex="1" parent="-tLpFbg5UkZrY0DCYXwx-0">
          <mxGeometry y="138" width="220" height="26" as="geometry" />
        </mxCell>
        <mxCell id="-tLpFbg5UkZrY0DCYXwx-5" value="InitExercise" style="text;align=left;verticalAlign=top;spacingLeft=4;spacingRight=4;overflow=hidden;rotatable=0;points=[[0,0.5],[1,0.5]];portConstraint=eastwest;" vertex="1" parent="-tLpFbg5UkZrY0DCYXwx-0">
          <mxGeometry y="164" width="220" height="26" as="geometry" />
        </mxCell>
        <mxCell id="-tLpFbg5UkZrY0DCYXwx-24" value="RandomItems 货架上随机物品数据构造" style="text;align=left;verticalAlign=top;spacingLeft=4;spacingRight=4;overflow=hidden;rotatable=0;points=[[0,0.5],[1,0.5]];portConstraint=eastwest;" vertex="1" parent="-tLpFbg5UkZrY0DCYXwx-0">
          <mxGeometry y="190" width="220" height="26" as="geometry" />
        </mxCell>
        <mxCell id="-tLpFbg5UkZrY0DCYXwx-25" value="InitChoices" style="text;align=left;verticalAlign=top;spacingLeft=4;spacingRight=4;overflow=hidden;rotatable=0;points=[[0,0.5],[1,0.5]];portConstraint=eastwest;" vertex="1" parent="-tLpFbg5UkZrY0DCYXwx-0">
          <mxGeometry y="216" width="220" height="26" as="geometry" />
        </mxCell>
        <mxCell id="-tLpFbg5UkZrY0DCYXwx-15" value="IsGameOver" style="text;align=left;verticalAlign=top;spacingLeft=4;spacingRight=4;overflow=hidden;rotatable=0;points=[[0,0.5],[1,0.5]];portConstraint=eastwest;" vertex="1" parent="-tLpFbg5UkZrY0DCYXwx-0">
          <mxGeometry y="242" width="220" height="26" as="geometry" />
        </mxCell>
        <mxCell id="-tLpFbg5UkZrY0DCYXwx-8" value="ReviewCommonResModel（公共资源数据类)" style="swimlane;fontStyle=2;align=center;verticalAlign=top;childLayout=stackLayout;horizontal=1;startSize=26;horizontalStack=0;resizeParent=1;resizeLast=0;collapsible=1;marginBottom=0;rounded=0;shadow=0;strokeWidth=1;" vertex="1" parent="WIyWlLk6GJQsqaUBKTNV-1">
          <mxGeometry x="-300" y="420" width="250" height="130" as="geometry">
            <mxRectangle x="230" y="140" width="160" height="26" as="alternateBounds" />
          </mxGeometry>
        </mxCell>
        <mxCell id="-tLpFbg5UkZrY0DCYXwx-9" value="configs" style="text;align=left;verticalAlign=top;spacingLeft=4;spacingRight=4;overflow=hidden;rotatable=0;points=[[0,0.5],[1,0.5]];portConstraint=eastwest;" vertex="1" parent="-tLpFbg5UkZrY0DCYXwx-8">
          <mxGeometry y="26" width="250" height="26" as="geometry" />
        </mxCell>
        <mxCell id="-tLpFbg5UkZrY0DCYXwx-12" value="" style="line;html=1;strokeWidth=1;align=left;verticalAlign=middle;spacingTop=-1;spacingLeft=3;spacingRight=3;rotatable=0;labelPosition=right;points=[];portConstraint=eastwest;" vertex="1" parent="-tLpFbg5UkZrY0DCYXwx-8">
          <mxGeometry y="52" width="250" height="8" as="geometry" />
        </mxCell>
        <mxCell id="-tLpFbg5UkZrY0DCYXwx-13" value="__init" style="text;align=left;verticalAlign=top;spacingLeft=4;spacingRight=4;overflow=hidden;rotatable=0;points=[[0,0.5],[1,0.5]];portConstraint=eastwest;" vertex="1" parent="-tLpFbg5UkZrY0DCYXwx-8">
          <mxGeometry y="60" width="250" height="26" as="geometry" />
        </mxCell>
        <mxCell id="-tLpFbg5UkZrY0DCYXwx-22" value="InitData" style="text;align=left;verticalAlign=top;spacingLeft=4;spacingRight=4;overflow=hidden;rotatable=0;points=[[0,0.5],[1,0.5]];portConstraint=eastwest;" vertex="1" parent="-tLpFbg5UkZrY0DCYXwx-8">
          <mxGeometry y="86" width="250" height="26" as="geometry" />
        </mxCell>
        <mxCell id="-tLpFbg5UkZrY0DCYXwx-54" value="" style="edgeStyle=orthogonalEdgeStyle;rounded=0;orthogonalLoop=1;jettySize=auto;html=1;" edge="1" parent="WIyWlLk6GJQsqaUBKTNV-1" source="-tLpFbg5UkZrY0DCYXwx-29" target="-tLpFbg5UkZrY0DCYXwx-42">
          <mxGeometry relative="1" as="geometry" />
        </mxCell>
        <mxCell id="-tLpFbg5UkZrY0DCYXwx-29" value="ReviewNewKnowClickList（购物清单）" style="swimlane;fontStyle=2;align=center;verticalAlign=top;childLayout=stackLayout;horizontal=1;startSize=26;horizontalStack=0;resizeParent=1;resizeLast=0;collapsible=1;marginBottom=0;rounded=0;shadow=0;strokeWidth=1;" vertex="1" parent="WIyWlLk6GJQsqaUBKTNV-1">
          <mxGeometry x="450" y="-420" width="250" height="294" as="geometry">
            <mxRectangle x="230" y="140" width="160" height="26" as="alternateBounds" />
          </mxGeometry>
        </mxCell>
        <mxCell id="-tLpFbg5UkZrY0DCYXwx-30" value="answer_items" style="text;align=left;verticalAlign=top;spacingLeft=4;spacingRight=4;overflow=hidden;rotatable=0;points=[[0,0.5],[1,0.5]];portConstraint=eastwest;" vertex="1" parent="-tLpFbg5UkZrY0DCYXwx-29">
          <mxGeometry y="26" width="250" height="26" as="geometry" />
        </mxCell>
        <mxCell id="-tLpFbg5UkZrY0DCYXwx-32" value="list_anim" style="text;align=left;verticalAlign=top;spacingLeft=4;spacingRight=4;overflow=hidden;rotatable=0;points=[[0,0.5],[1,0.5]];portConstraint=eastwest;rounded=0;shadow=0;html=0;" vertex="1" parent="-tLpFbg5UkZrY0DCYXwx-29">
          <mxGeometry y="52" width="250" height="26" as="geometry" />
        </mxCell>
        <mxCell id="-tLpFbg5UkZrY0DCYXwx-33" value="" style="line;html=1;strokeWidth=1;align=left;verticalAlign=middle;spacingTop=-1;spacingLeft=3;spacingRight=3;rotatable=0;labelPosition=right;points=[];portConstraint=eastwest;" vertex="1" parent="-tLpFbg5UkZrY0DCYXwx-29">
          <mxGeometry y="78" width="250" height="8" as="geometry" />
        </mxCell>
        <mxCell id="-tLpFbg5UkZrY0DCYXwx-34" value="Guide 手势引导处理" style="text;align=left;verticalAlign=top;spacingLeft=4;spacingRight=4;overflow=hidden;rotatable=0;points=[[0,0.5],[1,0.5]];portConstraint=eastwest;" vertex="1" parent="-tLpFbg5UkZrY0DCYXwx-29">
          <mxGeometry y="86" width="250" height="26" as="geometry" />
        </mxCell>
        <mxCell id="-tLpFbg5UkZrY0DCYXwx-36" value="PlayGameOver 游戏结束动画播放" style="text;align=left;verticalAlign=top;spacingLeft=4;spacingRight=4;overflow=hidden;rotatable=0;points=[[0,0.5],[1,0.5]];portConstraint=eastwest;" vertex="1" parent="-tLpFbg5UkZrY0DCYXwx-29">
          <mxGeometry y="112" width="250" height="26" as="geometry" />
        </mxCell>
        <mxCell id="-tLpFbg5UkZrY0DCYXwx-37" value="PlayShow 游戏开始出现动画" style="text;align=left;verticalAlign=top;spacingLeft=4;spacingRight=4;overflow=hidden;rotatable=0;points=[[0,0.5],[1,0.5]];portConstraint=eastwest;" vertex="1" parent="-tLpFbg5UkZrY0DCYXwx-29">
          <mxGeometry y="138" width="250" height="26" as="geometry" />
        </mxCell>
        <mxCell id="-tLpFbg5UkZrY0DCYXwx-39" value="PlayNextTopic 继续播放下一题" style="text;align=left;verticalAlign=top;spacingLeft=4;spacingRight=4;overflow=hidden;rotatable=0;points=[[0,0.5],[1,0.5]];portConstraint=eastwest;" vertex="1" parent="-tLpFbg5UkZrY0DCYXwx-29">
          <mxGeometry y="164" width="250" height="26" as="geometry" />
        </mxCell>
        <mxCell id="-tLpFbg5UkZrY0DCYXwx-38" value="PlayOut 关闭动画" style="text;align=left;verticalAlign=top;spacingLeft=4;spacingRight=4;overflow=hidden;rotatable=0;points=[[0,0.5],[1,0.5]];portConstraint=eastwest;" vertex="1" parent="-tLpFbg5UkZrY0DCYXwx-29">
          <mxGeometry y="190" width="250" height="26" as="geometry" />
        </mxCell>
        <mxCell id="-tLpFbg5UkZrY0DCYXwx-40" value="ClickAnswer 点击答案正确错误处理" style="text;align=left;verticalAlign=top;spacingLeft=4;spacingRight=4;overflow=hidden;rotatable=0;points=[[0,0.5],[1,0.5]];portConstraint=eastwest;" vertex="1" parent="-tLpFbg5UkZrY0DCYXwx-29">
          <mxGeometry y="216" width="250" height="26" as="geometry" />
        </mxCell>
        <mxCell id="-tLpFbg5UkZrY0DCYXwx-41" value="CreateAnswerItems答案物体初始化" style="text;align=left;verticalAlign=top;spacingLeft=4;spacingRight=4;overflow=hidden;rotatable=0;points=[[0,0.5],[1,0.5]];portConstraint=eastwest;" vertex="1" parent="-tLpFbg5UkZrY0DCYXwx-29">
          <mxGeometry y="242" width="250" height="26" as="geometry" />
        </mxCell>
        <mxCell id="-tLpFbg5UkZrY0DCYXwx-42" value="ReviewNewKnowClickListItem（清单单个物品）" style="swimlane;fontStyle=2;align=center;verticalAlign=top;childLayout=stackLayout;horizontal=1;startSize=26;horizontalStack=0;resizeParent=1;resizeLast=0;collapsible=1;marginBottom=0;rounded=0;shadow=0;strokeWidth=1;" vertex="1" parent="WIyWlLk6GJQsqaUBKTNV-1">
          <mxGeometry x="760" y="-394" width="280" height="242" as="geometry">
            <mxRectangle x="230" y="140" width="160" height="26" as="alternateBounds" />
          </mxGeometry>
        </mxCell>
        <mxCell id="-tLpFbg5UkZrY0DCYXwx-45" value="anim" style="text;align=left;verticalAlign=top;spacingLeft=4;spacingRight=4;overflow=hidden;rotatable=0;points=[[0,0.5],[1,0.5]];portConstraint=eastwest;rounded=0;shadow=0;html=0;" vertex="1" parent="-tLpFbg5UkZrY0DCYXwx-42">
          <mxGeometry y="26" width="280" height="26" as="geometry" />
        </mxCell>
        <mxCell id="-tLpFbg5UkZrY0DCYXwx-55" value="data" style="text;align=left;verticalAlign=top;spacingLeft=4;spacingRight=4;overflow=hidden;rotatable=0;points=[[0,0.5],[1,0.5]];portConstraint=eastwest;rounded=0;shadow=0;html=0;" vertex="1" parent="-tLpFbg5UkZrY0DCYXwx-42">
          <mxGeometry y="52" width="280" height="26" as="geometry" />
        </mxCell>
        <mxCell id="-tLpFbg5UkZrY0DCYXwx-46" value="" style="line;html=1;strokeWidth=1;align=left;verticalAlign=middle;spacingTop=-1;spacingLeft=3;spacingRight=3;rotatable=0;labelPosition=right;points=[];portConstraint=eastwest;" vertex="1" parent="-tLpFbg5UkZrY0DCYXwx-42">
          <mxGeometry y="78" width="280" height="8" as="geometry" />
        </mxCell>
        <mxCell id="-tLpFbg5UkZrY0DCYXwx-47" value="SetClickAction  设置点击事件" style="text;align=left;verticalAlign=top;spacingLeft=4;spacingRight=4;overflow=hidden;rotatable=0;points=[[0,0.5],[1,0.5]];portConstraint=eastwest;" vertex="1" parent="-tLpFbg5UkZrY0DCYXwx-42">
          <mxGeometry y="86" width="280" height="26" as="geometry" />
        </mxCell>
        <mxCell id="-tLpFbg5UkZrY0DCYXwx-48" value="SetButtonStatus 设置可点击状态" style="text;align=left;verticalAlign=top;spacingLeft=4;spacingRight=4;overflow=hidden;rotatable=0;points=[[0,0.5],[1,0.5]];portConstraint=eastwest;" vertex="1" parent="-tLpFbg5UkZrY0DCYXwx-42">
          <mxGeometry y="112" width="280" height="26" as="geometry" />
        </mxCell>
        <mxCell id="-tLpFbg5UkZrY0DCYXwx-49" value="SetInfo  设置数据和初始化展示" style="text;align=left;verticalAlign=top;spacingLeft=4;spacingRight=4;overflow=hidden;rotatable=0;points=[[0,0.5],[1,0.5]];portConstraint=eastwest;" vertex="1" parent="-tLpFbg5UkZrY0DCYXwx-42">
          <mxGeometry y="138" width="280" height="26" as="geometry" />
        </mxCell>
        <mxCell id="-tLpFbg5UkZrY0DCYXwx-50" value="OnClickAnswer  点击答案" style="text;align=left;verticalAlign=top;spacingLeft=4;spacingRight=4;overflow=hidden;rotatable=0;points=[[0,0.5],[1,0.5]];portConstraint=eastwest;" vertex="1" parent="-tLpFbg5UkZrY0DCYXwx-42">
          <mxGeometry y="164" width="280" height="26" as="geometry" />
        </mxCell>
        <mxCell id="-tLpFbg5UkZrY0DCYXwx-56" value="PlayRight  " style="text;align=left;verticalAlign=top;spacingLeft=4;spacingRight=4;overflow=hidden;rotatable=0;points=[[0,0.5],[1,0.5]];portConstraint=eastwest;" vertex="1" parent="-tLpFbg5UkZrY0DCYXwx-42">
          <mxGeometry y="190" width="280" height="26" as="geometry" />
        </mxCell>
        <mxCell id="-tLpFbg5UkZrY0DCYXwx-57" value="PlayWrong  " style="text;align=left;verticalAlign=top;spacingLeft=4;spacingRight=4;overflow=hidden;rotatable=0;points=[[0,0.5],[1,0.5]];portConstraint=eastwest;" vertex="1" parent="-tLpFbg5UkZrY0DCYXwx-42">
          <mxGeometry y="216" width="280" height="26" as="geometry" />
        </mxCell>
        <mxCell id="-tLpFbg5UkZrY0DCYXwx-81" style="edgeStyle=orthogonalEdgeStyle;rounded=0;orthogonalLoop=1;jettySize=auto;html=1;entryX=0;entryY=0.5;entryDx=0;entryDy=0;" edge="1" parent="WIyWlLk6GJQsqaUBKTNV-1" source="-tLpFbg5UkZrY0DCYXwx-77" target="-tLpFbg5UkZrY0DCYXwx-36">
          <mxGeometry relative="1" as="geometry" />
        </mxCell>
        <mxCell id="-tLpFbg5UkZrY0DCYXwx-120" value="" style="edgeStyle=orthogonalEdgeStyle;rounded=0;orthogonalLoop=1;jettySize=auto;html=1;" edge="1" parent="WIyWlLk6GJQsqaUBKTNV-1" source="-tLpFbg5UkZrY0DCYXwx-84" target="-tLpFbg5UkZrY0DCYXwx-113">
          <mxGeometry relative="1" as="geometry" />
        </mxCell>
        <mxCell id="-tLpFbg5UkZrY0DCYXwx-84" value="ReviewNewKnowClickBasket（购物栏）" style="swimlane;fontStyle=2;align=center;verticalAlign=top;childLayout=stackLayout;horizontal=1;startSize=26;horizontalStack=0;resizeParent=1;resizeLast=0;collapsible=1;marginBottom=0;rounded=0;shadow=0;strokeWidth=1;" vertex="1" parent="WIyWlLk6GJQsqaUBKTNV-1">
          <mxGeometry x="430" y="-90" width="320" height="200" as="geometry">
            <mxRectangle x="230" y="140" width="160" height="26" as="alternateBounds" />
          </mxGeometry>
        </mxCell>
        <mxCell id="-tLpFbg5UkZrY0DCYXwx-86" value="basket_items" style="text;align=left;verticalAlign=top;spacingLeft=4;spacingRight=4;overflow=hidden;rotatable=0;points=[[0,0.5],[1,0.5]];portConstraint=eastwest;" vertex="1" parent="-tLpFbg5UkZrY0DCYXwx-84">
          <mxGeometry y="26" width="320" height="26" as="geometry" />
        </mxCell>
        <mxCell id="-tLpFbg5UkZrY0DCYXwx-91" value="" style="line;html=1;strokeWidth=1;align=left;verticalAlign=middle;spacingTop=-1;spacingLeft=3;spacingRight=3;rotatable=0;labelPosition=right;points=[];portConstraint=eastwest;" vertex="1" parent="-tLpFbg5UkZrY0DCYXwx-84">
          <mxGeometry y="52" width="320" height="8" as="geometry" />
        </mxCell>
        <mxCell id="-tLpFbg5UkZrY0DCYXwx-92" value="PlayShow 出场动画" style="text;align=left;verticalAlign=top;spacingLeft=4;spacingRight=4;overflow=hidden;rotatable=0;points=[[0,0.5],[1,0.5]];portConstraint=eastwest;" vertex="1" parent="-tLpFbg5UkZrY0DCYXwx-84">
          <mxGeometry y="60" width="320" height="26" as="geometry" />
        </mxCell>
        <mxCell id="-tLpFbg5UkZrY0DCYXwx-93" value="GetFirstNotFindBasketItem 手势引导获取第一个未找到物品" style="text;align=left;verticalAlign=top;spacingLeft=4;spacingRight=4;overflow=hidden;rotatable=0;points=[[0,0.5],[1,0.5]];portConstraint=eastwest;" vertex="1" parent="-tLpFbg5UkZrY0DCYXwx-84">
          <mxGeometry y="86" width="320" height="26" as="geometry" />
        </mxCell>
        <mxCell id="-tLpFbg5UkZrY0DCYXwx-94" value="PlayOut()" style="text;align=left;verticalAlign=top;spacingLeft=4;spacingRight=4;overflow=hidden;rotatable=0;points=[[0,0.5],[1,0.5]];portConstraint=eastwest;" vertex="1" parent="-tLpFbg5UkZrY0DCYXwx-84">
          <mxGeometry y="112" width="320" height="26" as="geometry" />
        </mxCell>
        <mxCell id="-tLpFbg5UkZrY0DCYXwx-95" value="CreateBasketItems" style="text;align=left;verticalAlign=top;spacingLeft=4;spacingRight=4;overflow=hidden;rotatable=0;points=[[0,0.5],[1,0.5]];portConstraint=eastwest;" vertex="1" parent="-tLpFbg5UkZrY0DCYXwx-84">
          <mxGeometry y="138" width="320" height="26" as="geometry" />
        </mxCell>
        <mxCell id="-tLpFbg5UkZrY0DCYXwx-113" value="ReviewNewKnowBasketItem（购物栏物体）" style="swimlane;fontStyle=2;align=center;verticalAlign=top;childLayout=stackLayout;horizontal=1;startSize=26;horizontalStack=0;resizeParent=1;resizeLast=0;collapsible=1;marginBottom=0;rounded=0;shadow=0;strokeWidth=1;" vertex="1" parent="WIyWlLk6GJQsqaUBKTNV-1">
          <mxGeometry x="830" y="-90" width="320" height="200" as="geometry">
            <mxRectangle x="230" y="140" width="160" height="26" as="alternateBounds" />
          </mxGeometry>
        </mxCell>
        <mxCell id="-tLpFbg5UkZrY0DCYXwx-114" value="data" style="text;align=left;verticalAlign=top;spacingLeft=4;spacingRight=4;overflow=hidden;rotatable=0;points=[[0,0.5],[1,0.5]];portConstraint=eastwest;" vertex="1" parent="-tLpFbg5UkZrY0DCYXwx-113">
          <mxGeometry y="26" width="320" height="26" as="geometry" />
        </mxCell>
        <mxCell id="-tLpFbg5UkZrY0DCYXwx-115" value="" style="line;html=1;strokeWidth=1;align=left;verticalAlign=middle;spacingTop=-1;spacingLeft=3;spacingRight=3;rotatable=0;labelPosition=right;points=[];portConstraint=eastwest;" vertex="1" parent="-tLpFbg5UkZrY0DCYXwx-113">
          <mxGeometry y="52" width="320" height="8" as="geometry" />
        </mxCell>
        <mxCell id="-tLpFbg5UkZrY0DCYXwx-116" value="DisableTips" style="text;align=left;verticalAlign=top;spacingLeft=4;spacingRight=4;overflow=hidden;rotatable=0;points=[[0,0.5],[1,0.5]];portConstraint=eastwest;" vertex="1" parent="-tLpFbg5UkZrY0DCYXwx-113">
          <mxGeometry y="60" width="320" height="26" as="geometry" />
        </mxCell>
        <mxCell id="-tLpFbg5UkZrY0DCYXwx-117" value="PlayTips" style="text;align=left;verticalAlign=top;spacingLeft=4;spacingRight=4;overflow=hidden;rotatable=0;points=[[0,0.5],[1,0.5]];portConstraint=eastwest;" vertex="1" parent="-tLpFbg5UkZrY0DCYXwx-113">
          <mxGeometry y="86" width="320" height="26" as="geometry" />
        </mxCell>
        <mxCell id="-tLpFbg5UkZrY0DCYXwx-118" value="PlayRight" style="text;align=left;verticalAlign=top;spacingLeft=4;spacingRight=4;overflow=hidden;rotatable=0;points=[[0,0.5],[1,0.5]];portConstraint=eastwest;" vertex="1" parent="-tLpFbg5UkZrY0DCYXwx-113">
          <mxGeometry y="112" width="320" height="26" as="geometry" />
        </mxCell>
        <mxCell id="-tLpFbg5UkZrY0DCYXwx-119" value="SetInfo" style="text;align=left;verticalAlign=top;spacingLeft=4;spacingRight=4;overflow=hidden;rotatable=0;points=[[0,0.5],[1,0.5]];portConstraint=eastwest;" vertex="1" parent="-tLpFbg5UkZrY0DCYXwx-113">
          <mxGeometry y="138" width="320" height="26" as="geometry" />
        </mxCell>
        <mxCell id="-tLpFbg5UkZrY0DCYXwx-121" value="OnClick" style="text;align=left;verticalAlign=top;spacingLeft=4;spacingRight=4;overflow=hidden;rotatable=0;points=[[0,0.5],[1,0.5]];portConstraint=eastwest;" vertex="1" parent="-tLpFbg5UkZrY0DCYXwx-113">
          <mxGeometry y="164" width="320" height="26" as="geometry" />
        </mxCell>
        <mxCell id="-tLpFbg5UkZrY0DCYXwx-122" style="edgeStyle=orthogonalEdgeStyle;rounded=0;orthogonalLoop=1;jettySize=auto;html=1;entryX=0;entryY=0.5;entryDx=0;entryDy=0;" edge="1" parent="WIyWlLk6GJQsqaUBKTNV-1" source="zkfFHV4jXpPFQw0GAbJ--1" target="-tLpFbg5UkZrY0DCYXwx-94">
          <mxGeometry relative="1" as="geometry" />
        </mxCell>
        <mxCell id="-tLpFbg5UkZrY0DCYXwx-123" value="ReviewNewKnowClickRole 角色" style="swimlane;fontStyle=2;align=center;verticalAlign=top;childLayout=stackLayout;horizontal=1;startSize=26;horizontalStack=0;resizeParent=1;resizeLast=0;collapsible=1;marginBottom=0;rounded=0;shadow=0;strokeWidth=1;" vertex="1" parent="WIyWlLk6GJQsqaUBKTNV-1">
          <mxGeometry x="395" y="130" width="305" height="280" as="geometry">
            <mxRectangle x="230" y="140" width="160" height="26" as="alternateBounds" />
          </mxGeometry>
        </mxCell>
        <mxCell id="-tLpFbg5UkZrY0DCYXwx-124" value="role_anim" style="text;align=left;verticalAlign=top;spacingLeft=4;spacingRight=4;overflow=hidden;rotatable=0;points=[[0,0.5],[1,0.5]];portConstraint=eastwest;" vertex="1" parent="-tLpFbg5UkZrY0DCYXwx-123">
          <mxGeometry y="26" width="305" height="26" as="geometry" />
        </mxCell>
        <mxCell id="-tLpFbg5UkZrY0DCYXwx-130" value="" style="line;html=1;strokeWidth=1;align=left;verticalAlign=middle;spacingTop=-1;spacingLeft=3;spacingRight=3;rotatable=0;labelPosition=right;points=[];portConstraint=eastwest;" vertex="1" parent="-tLpFbg5UkZrY0DCYXwx-123">
          <mxGeometry y="52" width="305" height="8" as="geometry" />
        </mxCell>
        <mxCell id="-tLpFbg5UkZrY0DCYXwx-131" value="OnClickRole" style="text;align=left;verticalAlign=top;spacingLeft=4;spacingRight=4;overflow=hidden;rotatable=0;points=[[0,0.5],[1,0.5]];portConstraint=eastwest;" vertex="1" parent="-tLpFbg5UkZrY0DCYXwx-123">
          <mxGeometry y="60" width="305" height="26" as="geometry" />
        </mxCell>
        <mxCell id="-tLpFbg5UkZrY0DCYXwx-132" value="PlayOpenAnim开场动画" style="text;align=left;verticalAlign=top;spacingLeft=4;spacingRight=4;overflow=hidden;rotatable=0;points=[[0,0.5],[1,0.5]];portConstraint=eastwest;" vertex="1" parent="-tLpFbg5UkZrY0DCYXwx-123">
          <mxGeometry y="86" width="305" height="26" as="geometry" />
        </mxCell>
        <mxCell id="-tLpFbg5UkZrY0DCYXwx-133" value="PlayRight" style="text;align=left;verticalAlign=top;spacingLeft=4;spacingRight=4;overflow=hidden;rotatable=0;points=[[0,0.5],[1,0.5]];portConstraint=eastwest;" vertex="1" parent="-tLpFbg5UkZrY0DCYXwx-123">
          <mxGeometry y="112" width="305" height="26" as="geometry" />
        </mxCell>
        <mxCell id="-tLpFbg5UkZrY0DCYXwx-134" value="PlayWrong" style="text;align=left;verticalAlign=top;spacingLeft=4;spacingRight=4;overflow=hidden;rotatable=0;points=[[0,0.5],[1,0.5]];portConstraint=eastwest;" vertex="1" parent="-tLpFbg5UkZrY0DCYXwx-123">
          <mxGeometry y="138" width="305" height="26" as="geometry" />
        </mxCell>
        <mxCell id="-tLpFbg5UkZrY0DCYXwx-135" value="ChangeSkin 点击正确以后，要改变装物品的状态" style="text;align=left;verticalAlign=top;spacingLeft=4;spacingRight=4;overflow=hidden;rotatable=0;points=[[0,0.5],[1,0.5]];portConstraint=eastwest;" vertex="1" parent="-tLpFbg5UkZrY0DCYXwx-123">
          <mxGeometry y="164" width="305" height="26" as="geometry" />
        </mxCell>
        <mxCell id="-tLpFbg5UkZrY0DCYXwx-136" value="ShowList  展示购物清单" style="text;align=left;verticalAlign=top;spacingLeft=4;spacingRight=4;overflow=hidden;rotatable=0;points=[[0,0.5],[1,0.5]];portConstraint=eastwest;" vertex="1" parent="-tLpFbg5UkZrY0DCYXwx-123">
          <mxGeometry y="190" width="305" height="26" as="geometry" />
        </mxCell>
        <mxCell id="-tLpFbg5UkZrY0DCYXwx-137" value="PlayMove" style="text;align=left;verticalAlign=top;spacingLeft=4;spacingRight=4;overflow=hidden;rotatable=0;points=[[0,0.5],[1,0.5]];portConstraint=eastwest;" vertex="1" parent="-tLpFbg5UkZrY0DCYXwx-123">
          <mxGeometry y="216" width="305" height="26" as="geometry" />
        </mxCell>
        <mxCell id="-tLpFbg5UkZrY0DCYXwx-138" value="TurnAround 转身" style="text;align=left;verticalAlign=top;spacingLeft=4;spacingRight=4;overflow=hidden;rotatable=0;points=[[0,0.5],[1,0.5]];portConstraint=eastwest;" vertex="1" parent="-tLpFbg5UkZrY0DCYXwx-123">
          <mxGeometry y="242" width="305" height="26" as="geometry" />
        </mxCell>
        <mxCell id="-tLpFbg5UkZrY0DCYXwx-148" style="edgeStyle=orthogonalEdgeStyle;rounded=0;orthogonalLoop=1;jettySize=auto;html=1;entryX=0;entryY=0.5;entryDx=0;entryDy=0;" edge="1" parent="WIyWlLk6GJQsqaUBKTNV-1" source="-tLpFbg5UkZrY0DCYXwx-59" target="-tLpFbg5UkZrY0DCYXwx-133">
          <mxGeometry relative="1" as="geometry" />
        </mxCell>
        <mxCell id="-tLpFbg5UkZrY0DCYXwx-183" value="" style="edgeStyle=orthogonalEdgeStyle;rounded=0;orthogonalLoop=1;jettySize=auto;html=1;" edge="1" parent="WIyWlLk6GJQsqaUBKTNV-1" source="-tLpFbg5UkZrY0DCYXwx-150" target="-tLpFbg5UkZrY0DCYXwx-176">
          <mxGeometry relative="1" as="geometry" />
        </mxCell>
        <mxCell id="-tLpFbg5UkZrY0DCYXwx-150" value="ReviewNewKnowClickShelveGroup（货柜）" style="swimlane;fontStyle=2;align=center;verticalAlign=top;childLayout=stackLayout;horizontal=1;startSize=26;horizontalStack=0;resizeParent=1;resizeLast=0;collapsible=1;marginBottom=0;rounded=0;shadow=0;strokeWidth=1;" vertex="1" parent="WIyWlLk6GJQsqaUBKTNV-1">
          <mxGeometry x="-370" y="-230" width="305" height="200" as="geometry">
            <mxRectangle x="230" y="140" width="160" height="26" as="alternateBounds" />
          </mxGeometry>
        </mxCell>
        <mxCell id="-tLpFbg5UkZrY0DCYXwx-151" value="shelve_items" style="text;align=left;verticalAlign=top;spacingLeft=4;spacingRight=4;overflow=hidden;rotatable=0;points=[[0,0.5],[1,0.5]];portConstraint=eastwest;" vertex="1" parent="-tLpFbg5UkZrY0DCYXwx-150">
          <mxGeometry y="26" width="305" height="26" as="geometry" />
        </mxCell>
        <mxCell id="-tLpFbg5UkZrY0DCYXwx-157" value="" style="line;html=1;strokeWidth=1;align=left;verticalAlign=middle;spacingTop=-1;spacingLeft=3;spacingRight=3;rotatable=0;labelPosition=right;points=[];portConstraint=eastwest;" vertex="1" parent="-tLpFbg5UkZrY0DCYXwx-150">
          <mxGeometry y="52" width="305" height="8" as="geometry" />
        </mxCell>
        <mxCell id="-tLpFbg5UkZrY0DCYXwx-158" value="CreateItems" style="text;align=left;verticalAlign=top;spacingLeft=4;spacingRight=4;overflow=hidden;rotatable=0;points=[[0,0.5],[1,0.5]];portConstraint=eastwest;" vertex="1" parent="-tLpFbg5UkZrY0DCYXwx-150">
          <mxGeometry y="60" width="305" height="26" as="geometry" />
        </mxCell>
        <mxCell id="-tLpFbg5UkZrY0DCYXwx-159" value="SetClickShelveItemFunc" style="text;align=left;verticalAlign=top;spacingLeft=4;spacingRight=4;overflow=hidden;rotatable=0;points=[[0,0.5],[1,0.5]];portConstraint=eastwest;" vertex="1" parent="-tLpFbg5UkZrY0DCYXwx-150">
          <mxGeometry y="86" width="305" height="26" as="geometry" />
        </mxCell>
        <mxCell id="-tLpFbg5UkZrY0DCYXwx-160" value="GetShelveItems" style="text;align=left;verticalAlign=top;spacingLeft=4;spacingRight=4;overflow=hidden;rotatable=0;points=[[0,0.5],[1,0.5]];portConstraint=eastwest;" vertex="1" parent="-tLpFbg5UkZrY0DCYXwx-150">
          <mxGeometry y="112" width="305" height="26" as="geometry" />
        </mxCell>
        <mxCell id="-tLpFbg5UkZrY0DCYXwx-161" value="SetClickStatus" style="text;align=left;verticalAlign=top;spacingLeft=4;spacingRight=4;overflow=hidden;rotatable=0;points=[[0,0.5],[1,0.5]];portConstraint=eastwest;" vertex="1" parent="-tLpFbg5UkZrY0DCYXwx-150">
          <mxGeometry y="138" width="305" height="26" as="geometry" />
        </mxCell>
        <mxCell id="-tLpFbg5UkZrY0DCYXwx-174" style="edgeStyle=orthogonalEdgeStyle;rounded=0;orthogonalLoop=1;jettySize=auto;html=1;entryX=1;entryY=0.903;entryDx=0;entryDy=0;entryPerimeter=0;" edge="1" parent="WIyWlLk6GJQsqaUBKTNV-1" source="-tLpFbg5UkZrY0DCYXwx-61" target="-tLpFbg5UkZrY0DCYXwx-158">
          <mxGeometry relative="1" as="geometry" />
        </mxCell>
        <mxCell id="-tLpFbg5UkZrY0DCYXwx-176" value="ReviewNewKnowClickShelveItem（货架物品）" style="swimlane;fontStyle=2;align=center;verticalAlign=top;childLayout=stackLayout;horizontal=1;startSize=26;horizontalStack=0;resizeParent=1;resizeLast=0;collapsible=1;marginBottom=0;rounded=0;shadow=0;strokeWidth=1;" vertex="1" parent="WIyWlLk6GJQsqaUBKTNV-1">
          <mxGeometry x="-370" y="50" width="305" height="242" as="geometry">
            <mxRectangle x="230" y="140" width="160" height="26" as="alternateBounds" />
          </mxGeometry>
        </mxCell>
        <mxCell id="-tLpFbg5UkZrY0DCYXwx-185" value="data" style="text;align=left;verticalAlign=top;spacingLeft=4;spacingRight=4;overflow=hidden;rotatable=0;points=[[0,0.5],[1,0.5]];portConstraint=eastwest;" vertex="1" parent="-tLpFbg5UkZrY0DCYXwx-176">
          <mxGeometry y="26" width="305" height="26" as="geometry" />
        </mxCell>
        <mxCell id="-tLpFbg5UkZrY0DCYXwx-177" value="shelveIndex" style="text;align=left;verticalAlign=top;spacingLeft=4;spacingRight=4;overflow=hidden;rotatable=0;points=[[0,0.5],[1,0.5]];portConstraint=eastwest;" vertex="1" parent="-tLpFbg5UkZrY0DCYXwx-176">
          <mxGeometry y="52" width="305" height="26" as="geometry" />
        </mxCell>
        <mxCell id="-tLpFbg5UkZrY0DCYXwx-178" value="" style="line;html=1;strokeWidth=1;align=left;verticalAlign=middle;spacingTop=-1;spacingLeft=3;spacingRight=3;rotatable=0;labelPosition=right;points=[];portConstraint=eastwest;" vertex="1" parent="-tLpFbg5UkZrY0DCYXwx-176">
          <mxGeometry y="78" width="305" height="8" as="geometry" />
        </mxCell>
        <mxCell id="-tLpFbg5UkZrY0DCYXwx-179" value="SetClickAction" style="text;align=left;verticalAlign=top;spacingLeft=4;spacingRight=4;overflow=hidden;rotatable=0;points=[[0,0.5],[1,0.5]];portConstraint=eastwest;" vertex="1" parent="-tLpFbg5UkZrY0DCYXwx-176">
          <mxGeometry y="86" width="305" height="26" as="geometry" />
        </mxCell>
        <mxCell id="-tLpFbg5UkZrY0DCYXwx-180" value="SetInfo" style="text;align=left;verticalAlign=top;spacingLeft=4;spacingRight=4;overflow=hidden;rotatable=0;points=[[0,0.5],[1,0.5]];portConstraint=eastwest;" vertex="1" parent="-tLpFbg5UkZrY0DCYXwx-176">
          <mxGeometry y="112" width="305" height="26" as="geometry" />
        </mxCell>
        <mxCell id="-tLpFbg5UkZrY0DCYXwx-181" value="PlayTips" style="text;align=left;verticalAlign=top;spacingLeft=4;spacingRight=4;overflow=hidden;rotatable=0;points=[[0,0.5],[1,0.5]];portConstraint=eastwest;" vertex="1" parent="-tLpFbg5UkZrY0DCYXwx-176">
          <mxGeometry y="138" width="305" height="26" as="geometry" />
        </mxCell>
        <mxCell id="-tLpFbg5UkZrY0DCYXwx-186" value="PlayRight" style="text;align=left;verticalAlign=top;spacingLeft=4;spacingRight=4;overflow=hidden;rotatable=0;points=[[0,0.5],[1,0.5]];portConstraint=eastwest;" vertex="1" parent="-tLpFbg5UkZrY0DCYXwx-176">
          <mxGeometry y="164" width="305" height="26" as="geometry" />
        </mxCell>
        <mxCell id="-tLpFbg5UkZrY0DCYXwx-187" value="PlayWrong" style="text;align=left;verticalAlign=top;spacingLeft=4;spacingRight=4;overflow=hidden;rotatable=0;points=[[0,0.5],[1,0.5]];portConstraint=eastwest;" vertex="1" parent="-tLpFbg5UkZrY0DCYXwx-176">
          <mxGeometry y="190" width="305" height="26" as="geometry" />
        </mxCell>
        <mxCell id="-tLpFbg5UkZrY0DCYXwx-182" value="PlayOut" style="text;align=left;verticalAlign=top;spacingLeft=4;spacingRight=4;overflow=hidden;rotatable=0;points=[[0,0.5],[1,0.5]];portConstraint=eastwest;" vertex="1" parent="-tLpFbg5UkZrY0DCYXwx-176">
          <mxGeometry y="216" width="305" height="26" as="geometry" />
        </mxCell>
        <mxCell id="-tLpFbg5UkZrY0DCYXwx-190" style="edgeStyle=orthogonalEdgeStyle;rounded=0;orthogonalLoop=1;jettySize=auto;html=1;" edge="1" parent="WIyWlLk6GJQsqaUBKTNV-1" source="-tLpFbg5UkZrY0DCYXwx-3">
          <mxGeometry relative="1" as="geometry">
            <mxPoint x="-40" y="497.00000000000045" as="targetPoint" />
          </mxGeometry>
        </mxCell>
      </root>
    </mxGraphModel>
  </diagram>
</mxfile>
